<?xml version="1.0" encoding="utf-8"?>
<!-- Generator: Adobe Illustrator 16.0.0, SVG Export Plug-In . SVG Version: 6.00 Build 0)  -->
<!DOCTYPE svg PUBLIC "-//W3C//DTD SVG 1.1//EN" "http://www.w3.org/Graphics/SVG/1.1/DTD/svg11.dtd">
<svg version="1.1" id="Calque_1" xmlns="http://www.w3.org/2000/svg" xmlns:xlink="http://www.w3.org/1999/xlink" x="0px" y="0px"
	 width="512px" height="512px" viewBox="0 0 512 512" enable-background="new 0 0 512 512" xml:space="preserve">
<polygon fill="#55BFCC" points="197.057,322.041 232.267,292.892 186.18,66.355 177.127,47.799 181.88,193.302 "/>
<polygon fill="#55BFCC" points="189.546,332.375 257.008,275.219 286.878,314.819 276.242,346.047 290.725,386.553 290.725,389.53 
	"/>
<path fill="#55BFCC" d="M296.351,455.117l-3.363-68.339l-14.256-41.41l11.993-33.717l29.87-106.582l18.103-2.263l39.148,39.374
	l5.431,14.257c0,0-9.504-8.147-10.409-8.373c-0.905-0.226-40.958-21.045-40.958-21.045l-9.052-11.993l-25.569,130.115l4.31,106.257
	L296.351,455.117z"/>
<polygon fill="#6E559F" points="279.731,301.393 291.887,297.582 288.296,312.915 "/>
<polygon fill="#55BFCC" points="333.703,382.172 324.441,372.185 333.588,273.219 336.097,275.219 372.621,252.61 386.087,261.359 
	382.89,246.426 494.007,180.103 373.885,350.133 347.354,381.265 "/>
<polygon fill="#6E559F" points="123.763,331.564 185.727,333.376 289.725,392.114 251.114,406.638 "/>
<polygon fill="#55BFCC" points="246.995,415.743 246.995,411.821 290.724,394.623 294.27,456.777 286.706,457.919 "/>
<path fill="#55BFCC" d="M119.079,331.564l129.443,76.565l-4.41,1.676l0.15,5.938l-36.206-12.574L4.427,282.084
	C4.427,282.084,24.973,268.56,119.079,331.564"/>
<polygon fill="#6E559F" points="324.032,220.577 329.875,229.188 334.487,231.341 322.187,373.261 331.336,383.717 313.806,453.755 
	303.552,450.755 299.429,346.276 "/>
<rect x="-117" y="1.799" fill="#55BFCC" width="92" height="92"/>
<rect x="-117" y="93.799" fill="#6E559F" width="92" height="92"/>
</svg>
