<?xml version="1.0" ?><svg id="Layer_1" style="enable-background:new 0 0 64 64;" version="1.1" viewBox="0 0 64 64" xml:space="preserve" xmlns="http://www.w3.org/2000/svg" xmlns:xlink="http://www.w3.org/1999/xlink"><g><path d="M62.98367,0.03418c-18.03655,0-34.25747,9.93557-42.59237,25.15697c-0.27431-1.1458-0.39074-2.36566-0.33963-3.6367   c-8.59716,1.07189-17.34468,8.75945-20.05011,17.53843c-0.00968,0.03133,0.02779,0.05508,0.05384,0.03517   c5.38663-4.11615,11.62211-5.68476,16.36174-4.30522c-0.08908,0.30718-0.1851,0.61108-0.26829,0.92105L15.997,36.31062   l0.41506,0.41506l-2.23204,2.23204c0.29627,0.29633,10.90228,10.90235,10.90228,10.90235l2.23254-2.2326l0.4127,0.4127   c0.5078-0.13659,0.55098-0.13864,1.26347-0.3444l0.17952-0.00155c1.33475,4.71941-0.24404,10.86271-4.33276,16.21615   c-0.01991,0.02605,0.00385,0.06358,0.03517,0.05391c8.7816-2.70624,16.46684-11.45585,17.53837-20.05024   c-1.25181,0.05105-2.45548-0.06203-3.5885-0.32908c3.91315-2.1886,7.52284-4.84382,11.01003-8.32938   C58.9051,26.18183,64,13.96798,64,1.05052V0.03418H62.98367z M48.39568,33.81841   C42.793,39.41833,35.99762,43.5349,28.69425,45.66408l-0.22828,0.00199l-0.12009,0.10024   c-0.00397,0.00099-0.00893,0.00198-0.0139,0.00397l-10.0651-10.06411c4.0865-14.48657,14.95299-25.74833,28.62383-30.773   l12.18747,12.18747C56.76847,23.35773,53.14306,29.07065,48.39568,33.81841z"/><circle cx="43.6717" cy="20.29461" r="6.64245"/><path d="M13.0357,44.16476c-3.65438,3.65438-5.60306,12.43318-5.60306,12.43318s8.77892-1.94856,12.4333-5.60294   c0.01805-0.01805,0.03406-0.03666,0.05192-0.05478l-6.82745-6.82745C13.07237,44.1307,13.05369,44.14671,13.0357,44.16476z"/></g></svg>